General
Count                                    : 331
Count of stream of this kind             : 1
Kind of stream                           : General
Kind of stream                           : General
Stream identifier                        : 0
Count of audio streams                   : 1
Audio_Format_List                        : FLAC
Audio_Format_WithHint_List               : FLAC
Audio codecs                             : FLAC
Complete name                            : /media/mau/music-library/music/Jam & Spoon/1993 - Right In The Night (Fall In Love With Music) [JAM 659855 6]/01 -  Right in the night (Fall in love with music) (feat. Plavka).flac
Folder name                              : /media/mau/music-library/music/Jam & Spoon/1993 - Right In The Night (Fall In Love With Music) [JAM 659855 6]
File name extension                      : 01 -  Right in the night (Fall in love with music) (feat. Plavka).flac
File name                                : 01 -  Right in the night (Fall in love with music) (feat. Plavka)
File extension                           : flac
Format                                   : FLAC
Format                                   : FLAC
Format/Info                              : Free Lossless Audio Codec
Format/Url                               : https://xiph.org/flac/
Format/Extensions usually used           : fla flac
Commercial name                          : FLAC
Internet media type                      : audio/x-flac
File size                                : 137714396
File size                                : 131 MiB
File size                                : 131 MiB
File size                                : 131 MiB
File size                                : 131 MiB
File size                                : 131.3 MiB
Duration                                 : 367200
Duration                                 : 6 min 7 s
Duration                                 : 6 min 7 s 200 ms
Duration                                 : 6 min 7 s
Duration                                 : 00:06:07.200
Duration                                 : 00:06:07.200
Overall bit rate mode                    : VBR
Overall bit rate mode                    : Variable
Overall bit rate                         : 3000314
Overall bit rate                         : 3 000 kb/s
Stream size                              : 0
Stream size                              : 0.00 Byte (0%)
Stream size                              :  Byte0
Stream size                              : 0.0 Byte
Stream size                              : 0.00 Byte
Stream size                              : 0.000 Byte
Stream size                              : 0.00 Byte (0%)
Proportion of this stream                : 0.00000
Title                                    : 	Right in the night (Fall in love with music) (feat. Plavka)
Album                                    : Right In The Night (Fall In Love With Music) [JAM 659855 6]
Album/Performer                          : Jam & Spoon
Part                                     : 1
Part/Total                               : 1
Track name                               : 	Right in the night (Fall in love with music) (feat. Plavka)
Track name/Position                      : 1
Track name/Total                         : 3
Performer                                : Jam & Spoon
Genre                                    : House, Euro House, Trance
Recorded date                            : 1993
File last modification date              : UTC 2020-04-26 19:59:14
File last modification date (local)      : 2020-04-26 14:59:14

Audio
Count                                    : 280
Count of stream of this kind             : 1
Kind of stream                           : Audio
Kind of stream                           : Audio
Stream identifier                        : 0
Format                                   : FLAC
Format                                   : FLAC
Format/Info                              : Free Lossless Audio Codec
Format/Url                               : https://xiph.org/flac/
Commercial name                          : FLAC
Internet media type                      : audio/x-flac
Duration                                 : 367200
Duration                                 : 6 min 7 s
Duration                                 : 6 min 7 s 200 ms
Duration                                 : 6 min 7 s
Duration                                 : 00:06:07.200
Duration                                 : 00:06:07.200
Bit rate mode                            : VBR
Bit rate mode                            : Variable
Bit rate                                 : 3000111
Bit rate                                 : 3 000 kb/s
Channel(s)                               : 2
Channel(s)                               : 2 channels
Channel positions                        : Front: L R
Channel positions                        : 2/0/0
Channel layout                           : L R
Sampling rate                            : 96000
Sampling rate                            : 96.0 kHz
Samples count                            : 35251200
Bit depth                                : 24
Bit depth                                : 24 bits
Compression mode                         : Lossless
Compression mode                         : Lossless
Stream size                              : 137705073
Stream size                              : 131 MiB (100%)
Stream size                              : 131 MiB
Stream size                              : 131 MiB
Stream size                              : 131 MiB
Stream size                              : 131.3 MiB
Stream size                              : 131 MiB (100%)
Proportion of this stream                : 0.99993
Writing library                          : reference libFLAC 1.3.3 20190804
Writing library                          : libFLAC 1.3.3 (UTC 2019-08-04)
Encoded_Library_Name                     : libFLAC
Encoded_Library_Version                  : 1.3.3
Encoded_Library_Date                     : UTC 2019-08-04


